<svg width="31" height="33" viewBox="0 0 31 33" fill="none" xmlns="http://www.w3.org/2000/svg">
<path d="M9.81793 0.364624C9.69045 0.143826 9.40812 0.068175 9.18732 0.195653L5.18941 2.50384C4.96861 2.63132 4.89296 2.91366 5.02044 3.13445L5.09187 3.25818C5.21935 3.47898 5.50169 3.55463 5.72248 3.42715L9.72039 1.11896C9.94119 0.99148 10.0168 0.709147 9.88936 0.488349L9.81793 0.364624Z" fill="white"/>
<path d="M6.79452 5.28397C6.57372 5.41145 6.29139 5.3358 6.16391 5.115L6.10535 5.01357C5.97787 4.79277 6.05352 4.51044 6.27432 4.38296L10.2722 2.07477C10.493 1.94729 10.7754 2.02294 10.9028 2.24374L10.9614 2.34517C11.0889 2.56597 11.0132 2.8483 10.7924 2.97578L6.79452 5.28397Z" fill="white"/>
<path fill-rule="evenodd" clip-rule="evenodd" d="M7.34636 6.23978C7.12556 6.36726 7.04991 6.64959 7.17739 6.87039L14.7702 20.0215C14.8747 20.2025 14.8446 20.431 14.6968 20.5788L8.22359 27.052C8.13702 27.1386 8.0196 27.1872 7.89717 27.1872H0.461639C0.206683 27.1872 0 27.3939 0 27.6488V32.2652C0 32.5202 0.206683 32.7269 0.461638 32.7269H9.80847C9.87158 32.7269 9.93211 32.7519 9.97674 32.7966C10.0697 32.8895 10.2204 32.8895 10.3133 32.7966C10.3579 32.7519 10.4184 32.7269 10.4816 32.7269L30.0065 32.7269C30.2614 32.7269 30.4681 32.5202 30.4681 32.2652V27.6488C30.4681 27.3939 30.2615 27.1872 30.0065 27.1872H25.5705C25.4056 27.1872 25.2532 27.0992 25.1707 26.9564L22.0473 21.5465C21.9428 21.3655 21.9729 21.137 22.1206 20.9892L30.143 12.9668C30.3233 12.7865 30.3233 12.4942 30.143 12.3139L26.8788 9.04967C26.6985 8.86939 26.4062 8.86939 26.2259 9.04967L22.6823 12.5933C22.4312 12.8444 21.9929 12.7304 21.8319 12.4138C21.1915 11.1542 19.8831 10.2912 18.3732 10.2912C17.6734 10.2912 17.0168 10.4766 16.45 10.801C16.2078 10.9396 15.888 10.8782 15.7484 10.6366L11.9749 4.10056C11.8474 3.87976 11.5651 3.80411 11.3443 3.93159L7.34636 6.23978ZM18.5075 26.4947C18.6852 26.8025 18.4631 27.1872 18.1077 27.1872H17.0371C16.6259 27.1872 16.4199 26.69 16.7107 26.3991L17.3894 25.7204C17.6041 25.5058 17.9639 25.5532 18.1157 25.816L18.5075 26.4947Z" fill="white"/>
</svg>
